<svg id="_x31__x2C_5" enable-background="new 0 0 24 24" height="512" viewBox="0 0 24 24" width="512" xmlns="http://www.w3.org/2000/svg"><path d="m4.75 24c-.097 0-.194-.019-.287-.057-.28-.116-.463-.39-.463-.693v-4.25h-1.25c-1.517 0-2.75-1.233-2.75-2.75v-13.5c0-1.517 1.233-2.75 2.75-2.75h18.5c1.517 0 2.75 1.233 2.75 2.75v13.5c0 1.517-1.233 2.75-2.75 2.75h-11.189l-4.78 4.78c-.144.144-.336.22-.531.22zm-2-22.5c-.689 0-1.25.561-1.25 1.25v13.5c0 .689.561 1.25 1.25 1.25h2c.414 0 .75.336.75.75v3.189l3.72-3.72c.141-.141.331-.22.53-.22h11.5c.689 0 1.25-.561 1.25-1.25v-13.499c0-.689-.561-1.25-1.25-1.25z"/><path d="m8.25 14.99h-.5c-.965 0-1.75-.785-1.75-1.75v-4.5c0-.965.785-1.75 1.75-1.75h.5c.965 0 1.75.785 1.75 1.75v4.5c0 .965-.785 1.75-1.75 1.75zm-.5-6.5c-.138 0-.25.112-.25.25v4.5c0 .138.112.25.25.25h.5c.136 0 .25-.114.25-.25v-4.5c0-.138-.112-.25-.25-.25z"/><path d="m14.75 14.99h-.51c-2.76 0-4.388-.695-5.112-1.109-.359-.206-.484-.664-.279-1.023s.663-.486 1.023-.279c.479.274 1.865.912 4.368.912h.51c.584 0 1.111-.427 1.2-.971.005-.028.011-.056.019-.083.072-.31.509-2.517.532-2.813-.001-.614-.522-1.134-1.161-1.134h-2.5c-.277 0-.531-.153-.662-.397-.13-.245-.115-.541.039-.771s.343-.551.343-1.452c0-.897-.353-1.317-.48-1.369.043.029-.139.26-.139.909 0 1.674-1.625 2.87-2.323 3.306-.353.219-.815.113-1.034-.238-.22-.352-.113-.814.238-1.034.782-.488 1.618-1.279 1.618-2.034 0-1.658.854-2.4 1.699-2.4.943 0 1.92 1.07 1.92 2.86 0 .427-.053.803-.128 1.12h1.408c1.467 0 2.66 1.193 2.66 2.66 0 .092 0 .247-.29 1.739-.124.638-.208 1.073-.29 1.37l.011.002c-.207 1.271-1.36 2.229-2.68 2.229z"/></svg>