<svg id="Flat" height="512" viewBox="0 0 512 512" width="512" xmlns="http://www.w3.org/2000/svg"><path d="m328 304.27v163.12a15.988 15.988 0 0 1 -12.99 15.71c-11.73 2.25-31.4 4.9-59.01 4.9s-47.28-2.65-59.01-4.9a15.988 15.988 0 0 1 -12.99-15.71v-163.12a155.542 155.542 0 0 1 19.55-75.47 179.937 179.937 0 0 0 22.45-78.85l6-125.95h48l6 125.95a179.848 179.848 0 0 0 6.67 40.72q2.175 7.635 5.02 15.06a180.165 180.165 0 0 0 10.76 23.07 155.469 155.469 0 0 1 19.55 75.47z" fill="#278544"/><path d="m256 472c-26.412 0-45.029-2.507-55.995-4.61v-163.125a139.717 139.717 0 0 1 17.541-67.693 197.043 197.043 0 0 0 24.443-85.863l5.267-110.709h17.488l5.272 110.709a197.043 197.043 0 0 0 24.443 85.863 139.717 139.717 0 0 1 17.541 67.693v163.124c-10.971 2.104-29.588 4.611-56 4.611z" fill="#2c9547"/><path d="m297.69 205.73a359.483 359.483 0 0 1 -41.69 2.27 359.483 359.483 0 0 1 -41.69-2.27 180.171 180.171 0 0 0 11.69-55.78l2.57-53.95 1.52-32 .77-16 1.14-24h48l1.14 24 .77 16 1.52 32 2.57 53.95a179.744 179.744 0 0 0 3.03 25.39q1.47 7.74 3.64 15.33 2.175 7.635 5.02 15.06z" fill="#e9ae48"/><path d="m328 336s-24 8-72 8-72-8-72-8v96s24 8 72 8 72-8 72-8z" fill="#e3e4e2"/><path d="m281.91 64h-51.82l.77-16h50.28z" fill="#ce882a"/><path d="m283.43 96h-54.86l.76-16h53.34z" fill="#ce882a"/><path d="m296 384a8 8 0 0 1 -8-8v-71.735a115.7 115.7 0 0 0 -11.1-49.372 8 8 0 0 1 3.333-10.42h.006a8.025 8.025 0 0 1 11.151 3.638 131.755 131.755 0 0 1 12.61 56.154v71.735a8 8 0 0 1 -8 8z" fill="#f3f1f2"/><rect fill="#f3f1f2" height="16" rx="8" width="16" x="288" y="400"/><path d="m248 368h16v16h-16z" fill="#c9c9c8"/><path d="m224 400h48v16h-48z" fill="#c9c9c8"/><path d="m297.69 205.73a359.483 359.483 0 0 1 -41.69 2.27 359.483 359.483 0 0 1 -41.69-2.27 179.445 179.445 0 0 0 8.66-30.39 32.61 32.61 0 0 0 21.11-15.35c2.93-4.91 7.19-7.99 11.92-7.99s8.99 3.08 11.92 7.99a32.61 32.61 0 0 0 21.11 15.35q1.47 7.74 3.64 15.33 2.175 7.635 5.02 15.06z" fill="#e3e4e2"/></svg>