<?xml version="1.0" encoding="iso-8859-1"?>
<!-- Generator: Adobe Illustrator 18.0.0, SVG Export Plug-In . SVG Version: 6.00 Build 0)  -->
<!DOCTYPE svg PUBLIC "-//W3C//DTD SVG 1.1//EN" "http://www.w3.org/Graphics/SVG/1.1/DTD/svg11.dtd">
<svg version="1.1" id="Capa_1" xmlns="http://www.w3.org/2000/svg" xmlns:xlink="http://www.w3.org/1999/xlink" x="0px" y="0px"
	 viewBox="0 0 297 297" style="enable-background:new 0 0 297 297;" xml:space="preserve">
<g>
	<path d="M112.513,104.237c-2.332-3.499-4.537-10.78-4.537-14.984V10.259C107.976,4.594,103.383,0,97.718,0H63.862
		c-5.665,0-10.259,4.594-10.259,10.259v78.994c0,4.204-2.205,11.485-4.536,14.983l-21.336,32.005
		c-4.552,6.825-7.982,18.161-7.982,26.365v124.135c0,5.665,4.593,10.259,10.259,10.259h101.564c5.666,0,10.26-4.594,10.26-10.259
		V162.606c0-8.204-3.432-19.54-7.983-26.365L112.513,104.237z M121.313,276.481H40.266V162.606c0-4.204,2.205-11.485,4.537-14.984
		l21.336-32.005c4.551-6.827,7.982-18.161,7.982-26.364V20.519h13.337v68.734c0,8.203,3.431,19.537,7.982,26.365l21.336,32.004
		c2.331,3.499,4.536,10.78,4.536,14.984V276.481z"/>
	<path d="M275.199,157.477c2.332-3.108,2.707-7.268,0.969-10.743c-1.738-3.477-5.29-5.671-9.176-5.671H165.427
		c-3.887,0-7.438,2.194-9.177,5.671c-1.738,3.476-1.362,7.635,0.969,10.743l48.732,64.974v54.031h-6.669
		c-5.665,0-10.259,4.594-10.259,10.26c0,5.665,4.594,10.259,10.259,10.259h33.855c5.665,0,10.259-4.594,10.259-10.259
		c0-5.666-4.594-10.26-10.259-10.26h-6.669V222.45L275.199,157.477z M246.473,161.58l-30.264,40.353l-30.265-40.353H246.473z"/>
</g>
<g>
</g>
<g>
</g>
<g>
</g>
<g>
</g>
<g>
</g>
<g>
</g>
<g>
</g>
<g>
</g>
<g>
</g>
<g>
</g>
<g>
</g>
<g>
</g>
<g>
</g>
<g>
</g>
<g>
</g>
</svg>
